<svg width="871" height="153" viewBox="0 0 871 153" fill="none" xmlns="http://www.w3.org/2000/svg">
<path d="M190.76 62.84H209.48V146H190.76V110.72H159.32V146H140.6V62.84H159.32V94.64H190.76V62.84ZM281.405 143.84C278.365 144.72 274.445 145.52 269.645 146.24C264.845 147.04 259.805 147.44 254.525 147.44C249.165 147.44 244.685 146.72 241.085 145.28C237.565 143.84 234.765 141.84 232.685 139.28C230.605 136.64 229.125 133.52 228.245 129.92C227.365 126.32 226.925 122.36 226.925 118.04V82.88H244.805V115.88C244.805 121.64 245.565 125.8 247.085 128.36C248.605 130.92 251.445 132.2 255.605 132.2C256.885 132.2 258.245 132.16 259.685 132.08C261.125 131.92 262.405 131.76 263.525 131.6V82.88H281.405V143.84ZM298.189 85.04C301.229 84.16 305.149 83.36 309.949 82.64C314.749 81.84 319.789 81.44 325.069 81.44C330.429 81.44 334.869 82.16 338.389 83.6C341.989 84.96 344.829 86.92 346.909 89.48C348.989 92.04 350.469 95.08 351.349 98.6C352.229 102.12 352.669 106.04 352.669 110.36V146H334.789V112.52C334.789 106.76 334.029 102.68 332.509 100.28C330.989 97.88 328.149 96.68 323.989 96.68C322.709 96.68 321.349 96.76 319.909 96.92C318.469 97 317.189 97.12 316.069 97.28V146H298.189V85.04ZM384.093 113.96C384.093 119.48 385.333 123.92 387.813 127.28C390.293 130.64 393.973 132.32 398.853 132.32C400.453 132.32 401.933 132.28 403.293 132.2C404.653 132.04 405.773 131.88 406.653 131.72V99.2C405.533 98.48 404.053 97.88 402.213 97.4C400.453 96.92 398.653 96.68 396.813 96.68C388.333 96.68 384.093 102.44 384.093 113.96ZM424.533 143.96C422.933 144.44 421.093 144.92 419.013 145.4C416.933 145.8 414.733 146.16 412.413 146.48C410.173 146.8 407.853 147.04 405.453 147.2C403.133 147.44 400.893 147.56 398.733 147.56C393.533 147.56 388.893 146.8 384.813 145.28C380.733 143.76 377.293 141.6 374.493 138.8C371.693 135.92 369.533 132.48 368.013 128.48C366.573 124.4 365.853 119.84 365.853 114.8C365.853 109.68 366.493 105.08 367.773 101C369.053 96.84 370.893 93.32 373.293 90.44C375.693 87.56 378.613 85.36 382.053 83.84C385.573 82.32 389.573 81.56 394.053 81.56C396.533 81.56 398.733 81.8 400.653 82.28C402.653 82.76 404.653 83.44 406.653 84.32V55.76L424.533 52.88V143.96ZM479.315 98.72C477.715 98.32 475.835 97.92 473.675 97.52C471.515 97.04 469.195 96.8 466.715 96.8C465.595 96.8 464.235 96.92 462.635 97.16C461.115 97.32 459.955 97.52 459.155 97.76V146H441.275V86.24C444.475 85.12 448.235 84.08 452.555 83.12C456.955 82.08 461.835 81.56 467.195 81.56C468.155 81.56 469.315 81.64 470.675 81.8C472.035 81.88 473.395 82.04 474.755 82.28C476.115 82.44 477.475 82.68 478.835 83C480.195 83.24 481.355 83.56 482.315 83.96L479.315 98.72ZM487.728 114.92C487.728 109.32 488.568 104.44 490.248 100.28C492.008 96.04 494.288 92.52 497.088 89.72C499.888 86.92 503.088 84.8 506.688 83.36C510.368 81.92 514.128 81.2 517.968 81.2C526.928 81.2 534.008 83.96 539.208 89.48C544.408 94.92 547.008 102.96 547.008 113.6C547.008 114.64 546.968 115.8 546.888 117.08C546.808 118.28 546.728 119.36 546.648 120.32H506.088C506.488 124 508.208 126.92 511.248 129.08C514.288 131.24 518.368 132.32 523.488 132.32C526.768 132.32 529.968 132.04 533.088 131.48C536.288 130.84 538.888 130.08 540.888 129.2L543.288 143.72C542.328 144.2 541.048 144.68 539.448 145.16C537.848 145.64 536.048 146.04 534.048 146.36C532.128 146.76 530.048 147.08 527.808 147.32C525.568 147.56 523.328 147.68 521.088 147.68C515.408 147.68 510.448 146.84 506.208 145.16C502.048 143.48 498.568 141.2 495.768 138.32C493.048 135.36 491.008 131.88 489.648 127.88C488.368 123.88 487.728 119.56 487.728 114.92ZM529.728 108.08C529.648 106.56 529.368 105.08 528.888 103.64C528.488 102.2 527.808 100.92 526.848 99.8C525.968 98.68 524.808 97.76 523.368 97.04C522.008 96.32 520.288 95.96 518.208 95.96C516.208 95.96 514.488 96.32 513.048 97.04C511.608 97.68 510.408 98.56 509.448 99.68C508.488 100.8 507.728 102.12 507.168 103.64C506.688 105.08 506.328 106.56 506.088 108.08H529.728ZM576.046 113.96C576.046 119.48 577.286 123.92 579.766 127.28C582.246 130.64 585.926 132.32 590.806 132.32C592.406 132.32 593.886 132.28 595.246 132.2C596.606 132.04 597.726 131.88 598.606 131.72V99.2C597.486 98.48 596.006 97.88 594.166 97.4C592.406 96.92 590.606 96.68 588.766 96.68C580.286 96.68 576.046 102.44 576.046 113.96ZM616.486 143.96C614.886 144.44 613.046 144.92 610.966 145.4C608.886 145.8 606.686 146.16 604.366 146.48C602.126 146.8 599.806 147.04 597.406 147.2C595.086 147.44 592.846 147.56 590.686 147.56C585.486 147.56 580.846 146.8 576.766 145.28C572.686 143.76 569.246 141.6 566.446 138.8C563.646 135.92 561.486 132.48 559.966 128.48C558.526 124.4 557.806 119.84 557.806 114.8C557.806 109.68 558.446 105.08 559.726 101C561.006 96.84 562.846 93.32 565.246 90.44C567.646 87.56 570.566 85.36 574.006 83.84C577.526 82.32 581.526 81.56 586.006 81.56C588.486 81.56 590.686 81.8 592.606 82.28C594.606 82.76 596.606 83.44 598.606 84.32V55.76L616.486 52.88V143.96ZM650.748 136.52C650.748 140.12 649.588 142.88 647.268 144.8C645.028 146.64 642.468 147.56 639.588 147.56C636.708 147.56 634.108 146.64 631.788 144.8C629.548 142.88 628.428 140.12 628.428 136.52C628.428 132.92 629.548 130.2 631.788 128.36C634.108 126.44 636.708 125.48 639.588 125.48C642.468 125.48 645.028 126.44 647.268 128.36C649.588 130.2 650.748 132.92 650.748 136.52ZM674.367 113.96C674.367 119.48 675.607 123.92 678.087 127.28C680.567 130.64 684.247 132.32 689.127 132.32C690.727 132.32 692.207 132.28 693.567 132.2C694.927 132.04 696.047 131.88 696.927 131.72V99.2C695.807 98.48 694.327 97.88 692.487 97.4C690.727 96.92 688.927 96.68 687.087 96.68C678.607 96.68 674.367 102.44 674.367 113.96ZM714.807 143.96C713.207 144.44 711.367 144.92 709.287 145.4C707.207 145.8 705.007 146.16 702.687 146.48C700.447 146.8 698.127 147.04 695.727 147.2C693.407 147.44 691.167 147.56 689.007 147.56C683.807 147.56 679.167 146.8 675.087 145.28C671.007 143.76 667.567 141.6 664.767 138.8C661.967 135.92 659.807 132.48 658.287 128.48C656.847 124.4 656.127 119.84 656.127 114.8C656.127 109.68 656.767 105.08 658.047 101C659.327 96.84 661.167 93.32 663.567 90.44C665.967 87.56 668.887 85.36 672.327 83.84C675.847 82.32 679.847 81.56 684.327 81.56C686.807 81.56 689.007 81.8 690.927 82.28C692.927 82.76 694.927 83.44 696.927 84.32V55.76L714.807 52.88V143.96ZM728.548 114.92C728.548 109.32 729.388 104.44 731.068 100.28C732.828 96.04 735.108 92.52 737.908 89.72C740.708 86.92 743.908 84.8 747.508 83.36C751.188 81.92 754.948 81.2 758.788 81.2C767.748 81.2 774.828 83.96 780.028 89.48C785.228 94.92 787.828 102.96 787.828 113.6C787.828 114.64 787.788 115.8 787.708 117.08C787.628 118.28 787.548 119.36 787.468 120.32H746.908C747.308 124 749.028 126.92 752.068 129.08C755.108 131.24 759.188 132.32 764.308 132.32C767.588 132.32 770.788 132.04 773.908 131.48C777.108 130.84 779.708 130.08 781.708 129.2L784.108 143.72C783.148 144.2 781.868 144.68 780.268 145.16C778.668 145.64 776.868 146.04 774.868 146.36C772.948 146.76 770.868 147.08 768.628 147.32C766.388 147.56 764.148 147.68 761.908 147.68C756.228 147.68 751.268 146.84 747.028 145.16C742.868 143.48 739.388 141.2 736.588 138.32C733.868 135.36 731.828 131.88 730.468 127.88C729.188 123.88 728.548 119.56 728.548 114.92ZM770.548 108.08C770.468 106.56 770.188 105.08 769.708 103.64C769.308 102.2 768.628 100.92 767.668 99.8C766.788 98.68 765.628 97.76 764.188 97.04C762.828 96.32 761.108 95.96 759.028 95.96C757.028 95.96 755.308 96.32 753.868 97.04C752.428 97.68 751.228 98.56 750.268 99.68C749.308 100.8 748.548 102.12 747.988 103.64C747.508 105.08 747.148 106.56 746.908 108.08H770.548ZM818.787 146C814.707 138 810.547 128.64 806.307 117.92C802.147 107.2 798.187 95.52 794.427 82.88H813.387C814.187 86 815.107 89.4 816.147 93.08C817.267 96.68 818.387 100.36 819.507 104.12C820.707 107.8 821.867 111.4 822.987 114.92C824.187 118.44 825.347 121.64 826.467 124.52C827.507 121.64 828.627 118.44 829.827 114.92C831.027 111.4 832.187 107.8 833.307 104.12C834.507 100.36 835.627 96.68 836.667 93.08C837.787 89.4 838.747 86 839.547 82.88H858.027C854.267 95.52 850.267 107.2 846.027 117.92C841.867 128.64 837.747 138 833.667 146H818.787Z" fill="white"/>
<path d="M162.68 14.68C162.573 16.04 162.493 17.3467 162.44 18.6C162.413 19.8533 162.4 20.8133 162.4 21.48C162.4 22.0667 162.413 22.6267 162.44 23.16C162.467 23.6933 162.493 24.1467 162.52 24.52H161.6C161.173 22.28 160.627 20.5067 159.96 19.2C159.32 17.8933 158.547 16.9733 157.64 16.44C156.733 15.88 155.667 15.6 154.44 15.6H153.52V38.44C153.52 39.5067 153.627 40.3067 153.84 40.84C154.08 41.3733 154.507 41.7333 155.12 41.92C155.733 42.08 156.627 42.1733 157.8 42.2V43C156.973 42.9733 155.867 42.9467 154.48 42.92C153.12 42.8933 151.693 42.88 150.2 42.88C148.733 42.88 147.347 42.8933 146.04 42.92C144.733 42.9467 143.68 42.9733 142.88 43V42.2C144.08 42.1733 144.987 42.08 145.6 41.92C146.213 41.7333 146.627 41.3733 146.84 40.84C147.053 40.3067 147.16 39.5067 147.16 38.44V15.6H146.28C145.053 15.6 143.987 15.88 143.08 16.44C142.173 16.9733 141.4 17.8933 140.76 19.2C140.12 20.48 139.56 22.2533 139.08 24.52H138.16C138.213 24.1467 138.24 23.6933 138.24 23.16C138.267 22.6267 138.28 22.0667 138.28 21.48C138.28 20.8133 138.253 19.8533 138.2 18.6C138.173 17.3467 138.107 16.04 138 14.68C139.227 14.7067 140.56 14.7333 142 14.76C143.467 14.7867 144.933 14.8 146.4 14.8C147.867 14.8 149.187 14.8 150.36 14.8C151.56 14.8 152.88 14.8 154.32 14.8C155.787 14.8 157.253 14.7867 158.72 14.76C160.187 14.7333 161.507 14.7067 162.68 14.68ZM179.599 14.12C182.425 14.12 184.892 14.6933 186.999 15.84C189.132 16.9867 190.785 18.64 191.959 20.8C193.132 22.9333 193.719 25.5333 193.719 28.6C193.719 31.5867 193.119 34.2 191.919 36.44C190.719 38.68 189.039 40.4267 186.879 41.68C184.745 42.9333 182.305 43.56 179.559 43.56C176.732 43.56 174.252 42.9867 172.119 41.84C170.012 40.6933 168.372 39.04 167.199 36.88C166.025 34.72 165.439 32.12 165.439 29.08C165.439 26.0933 166.039 23.48 167.239 21.24C168.465 19 170.132 17.2533 172.239 16C174.372 14.7467 176.825 14.12 179.599 14.12ZM179.439 14.84C177.945 14.84 176.639 15.44 175.519 16.64C174.425 17.84 173.572 19.4933 172.959 21.6C172.372 23.7067 172.079 26.1467 172.079 28.92C172.079 31.7467 172.412 34.2133 173.079 36.32C173.772 38.4 174.692 40.0133 175.839 41.16C177.012 42.28 178.305 42.84 179.719 42.84C181.212 42.84 182.505 42.24 183.599 41.04C184.719 39.84 185.572 38.1867 186.159 36.08C186.772 33.9467 187.079 31.5067 187.079 28.76C187.079 25.9067 186.732 23.44 186.039 21.36C185.372 19.28 184.452 17.68 183.279 16.56C182.132 15.4133 180.852 14.84 179.439 14.84ZM196.485 14.68C197.152 14.7067 198.045 14.7333 199.165 14.76C200.312 14.7867 201.445 14.8 202.565 14.8C203.845 14.8 205.085 14.7867 206.285 14.76C207.485 14.7333 208.338 14.72 208.845 14.72C211.325 14.72 213.378 15 215.005 15.56C216.658 16.0933 217.885 16.88 218.685 17.92C219.512 18.96 219.925 20.2133 219.925 21.68C219.925 22.5867 219.738 23.5067 219.365 24.44C218.992 25.3467 218.352 26.2 217.445 27C216.565 27.7733 215.352 28.4 213.805 28.88C212.258 29.3333 210.312 29.56 207.965 29.56H204.125V28.76H207.565C209.138 28.76 210.325 28.4667 211.125 27.88C211.952 27.2667 212.512 26.4667 212.805 25.48C213.125 24.4667 213.285 23.3467 213.285 22.12C213.285 20.0133 212.912 18.3867 212.165 17.24C211.418 16.0667 210.138 15.48 208.325 15.48C207.285 15.48 206.605 15.7067 206.285 16.16C205.992 16.6133 205.845 17.5333 205.845 18.92V38.76C205.845 39.72 205.912 40.44 206.045 40.92C206.205 41.4 206.498 41.72 206.925 41.88C207.352 42.04 207.992 42.1467 208.845 42.2V43C208.125 42.9467 207.218 42.92 206.125 42.92C205.032 42.8933 203.925 42.88 202.805 42.88C201.525 42.88 200.312 42.8933 199.165 42.92C198.045 42.92 197.152 42.9467 196.485 43V42.2C197.338 42.1467 197.978 42.04 198.405 41.88C198.832 41.72 199.112 41.4 199.245 40.92C199.405 40.44 199.485 39.72 199.485 38.76V18.92C199.485 17.9333 199.405 17.2133 199.245 16.76C199.112 16.28 198.818 15.96 198.365 15.8C197.938 15.6133 197.312 15.5067 196.485 15.48V14.68ZM204.045 28.88C205.192 28.9067 206.178 28.96 207.005 29.04C207.858 29.12 208.605 29.2 209.245 29.28C209.885 29.3333 210.458 29.3733 210.965 29.4C213.392 29.6133 215.178 30.1333 216.325 30.96C217.498 31.7867 218.258 33.0267 218.605 34.68L219.525 38.8C219.765 39.8667 220.018 40.6133 220.285 41.04C220.552 41.4667 220.938 41.68 221.445 41.68C221.792 41.6533 222.072 41.5733 222.285 41.44C222.525 41.28 222.778 41.0533 223.045 40.76L223.605 41.24C222.885 42.0667 222.112 42.6533 221.285 43C220.458 43.3733 219.458 43.56 218.285 43.56C216.845 43.56 215.658 43.2533 214.725 42.64C213.792 42.0267 213.178 40.8933 212.885 39.24L212.165 35.24C211.978 34.12 211.752 33.1467 211.485 32.32C211.218 31.4667 210.845 30.8 210.365 30.32C209.912 29.8133 209.272 29.56 208.445 29.56H204.125L204.045 28.88ZM253.38 42.52L254.1 42.72C253.887 44.1867 253.554 45.44 253.1 46.48C252.647 47.5467 252.06 48.3733 251.34 48.96C250.78 49.4133 250.047 49.7867 249.14 50.08C248.26 50.3733 247.274 50.52 246.18 50.52C244.714 50.52 243.274 50.2933 241.86 49.84C240.474 49.3867 239.06 48.8267 237.62 48.16C236.18 47.52 234.66 46.8933 233.06 46.28C232.874 46.2267 232.687 46.16 232.5 46.08C232.34 46.0267 232.207 46 232.1 46C231.594 46.24 231.034 46.44 230.42 46.6C229.834 46.76 229.274 46.84 228.74 46.84C228.207 46.84 227.754 46.76 227.38 46.6C227.034 46.44 226.86 46.1733 226.86 45.8C226.86 45.08 227.594 44.72 229.06 44.72C229.994 44.72 231.007 44.9067 232.1 45.28C233.087 45.0133 233.927 44.7067 234.62 44.36C235.34 44.04 236.074 43.7333 236.82 43.44C237.594 43.1467 238.527 42.96 239.62 42.88L239.66 43.52C238.807 43.6 238.074 43.7467 237.46 43.96C236.874 44.2 236.274 44.4533 235.66 44.72C235.047 44.9867 234.327 45.24 233.5 45.48C235.394 45.6133 237.154 45.7467 238.78 45.88C240.407 46.04 241.914 46.1333 243.3 46.16C244.687 46.2133 245.94 46.16 247.06 46C248.714 45.8133 250.02 45.4533 250.98 44.92C251.94 44.3867 252.74 43.5867 253.38 42.52ZM238.7 14.12C241.527 14.12 243.994 14.6933 246.1 15.84C248.234 16.9867 249.887 18.64 251.06 20.8C252.234 22.9333 252.82 25.5333 252.82 28.6C252.82 31.5867 252.22 34.2 251.02 36.44C249.82 38.68 248.14 40.4267 245.98 41.68C243.847 42.9333 241.407 43.56 238.66 43.56C235.834 43.56 233.354 42.9867 231.22 41.84C229.114 40.6933 227.474 39.04 226.3 36.88C225.127 34.72 224.54 32.12 224.54 29.08C224.54 26.0933 225.14 23.48 226.34 21.24C227.567 19 229.234 17.2533 231.34 16C233.474 14.7467 235.927 14.12 238.7 14.12ZM238.54 14.84C237.047 14.84 235.74 15.44 234.62 16.64C233.527 17.84 232.674 19.4933 232.06 21.6C231.474 23.7067 231.18 26.1467 231.18 28.92C231.18 31.7467 231.514 34.2133 232.18 36.32C232.874 38.4 233.794 40.0133 234.94 41.16C236.114 42.28 237.407 42.84 238.82 42.84C240.314 42.84 241.607 42.24 242.7 41.04C243.82 39.84 244.674 38.1867 245.26 36.08C245.874 33.9467 246.18 31.5067 246.18 28.76C246.18 25.9067 245.834 23.44 245.14 21.36C244.474 19.28 243.554 17.68 242.38 16.56C241.234 15.4133 239.954 14.84 238.54 14.84ZM255.587 14.68C256.28 14.7067 257.187 14.7333 258.307 14.76C259.427 14.7867 260.547 14.8 261.667 14.8C262.947 14.8 264.187 14.7867 265.387 14.76C266.587 14.7333 267.44 14.72 267.947 14.72C271.253 14.72 273.72 15.3067 275.347 16.48C277 17.6533 277.827 19.16 277.827 21C277.827 21.9333 277.547 22.88 276.987 23.84C276.427 24.8 275.56 25.6533 274.387 26.4C273.213 27.1467 271.693 27.6933 269.827 28.04V28.12C272.333 28.3067 274.32 28.76 275.787 29.48C277.253 30.2 278.307 31.0667 278.947 32.08C279.587 33.0933 279.907 34.1467 279.907 35.24C279.907 36.92 279.467 38.3333 278.587 39.48C277.707 40.6267 276.44 41.5067 274.787 42.12C273.133 42.7067 271.16 43 268.867 43C268.227 43 267.307 42.9867 266.107 42.96C264.907 42.9067 263.453 42.88 261.747 42.88C260.573 42.88 259.427 42.8933 258.307 42.92C257.187 42.92 256.28 42.9467 255.587 43V42.2C256.44 42.1467 257.08 42.04 257.507 41.88C257.933 41.72 258.213 41.4 258.347 40.92C258.507 40.44 258.587 39.72 258.587 38.76V18.92C258.587 17.9333 258.507 17.2133 258.347 16.76C258.213 16.28 257.92 15.96 257.467 15.8C257.04 15.6133 256.413 15.5067 255.587 15.48V14.68ZM267.427 15.48C266.387 15.48 265.707 15.7067 265.387 16.16C265.093 16.6133 264.947 17.5333 264.947 18.92V38.76C264.947 39.6933 265.013 40.4 265.147 40.88C265.307 41.36 265.573 41.68 265.947 41.84C266.347 42 266.933 42.08 267.707 42.08C269.627 42.08 271.027 41.48 271.907 40.28C272.813 39.0533 273.267 37.32 273.267 35.08C273.267 33.0267 272.747 31.44 271.707 30.32C270.693 29.2 269 28.64 266.627 28.64H263.227C263.227 28.64 263.227 28.5333 263.227 28.32C263.227 28.08 263.227 27.96 263.227 27.96H266.667C267.92 27.96 268.88 27.6667 269.547 27.08C270.213 26.4667 270.68 25.6667 270.947 24.68C271.213 23.6667 271.347 22.5867 271.347 21.44C271.347 19.4667 271.04 17.9867 270.427 17C269.813 15.9867 268.813 15.48 267.427 15.48ZM294.704 14.68V15.48C293.851 15.5067 293.198 15.6133 292.744 15.8C292.318 15.96 292.038 16.28 291.904 16.76C291.771 17.2133 291.704 17.9333 291.704 18.92V38.76C291.704 39.72 291.771 40.44 291.904 40.92C292.064 41.4 292.358 41.72 292.784 41.88C293.211 42.04 293.851 42.1467 294.704 42.2V43C293.984 42.9467 293.078 42.92 291.984 42.92C290.891 42.8933 289.784 42.88 288.664 42.88C287.358 42.88 286.144 42.8933 285.024 42.92C283.931 42.92 283.038 42.9467 282.344 43V42.2C283.198 42.1467 283.838 42.04 284.264 41.88C284.691 41.72 284.971 41.4 285.104 40.92C285.264 40.44 285.344 39.72 285.344 38.76V18.92C285.344 17.9333 285.264 17.2133 285.104 16.76C284.971 16.28 284.678 15.96 284.224 15.8C283.798 15.6133 283.171 15.5067 282.344 15.48V14.68C283.038 14.7067 283.931 14.7333 285.024 14.76C286.144 14.7867 287.358 14.8 288.664 14.8C289.784 14.8 290.891 14.7867 291.984 14.76C293.078 14.7333 293.984 14.7067 294.704 14.68ZM321.703 14.68C321.597 16.04 321.517 17.3467 321.463 18.6C321.437 19.8533 321.423 20.8133 321.423 21.48C321.423 22.0667 321.437 22.6267 321.463 23.16C321.49 23.6933 321.517 24.1467 321.543 24.52H320.623C320.197 22.28 319.65 20.5067 318.983 19.2C318.343 17.8933 317.57 16.9733 316.663 16.44C315.757 15.88 314.69 15.6 313.463 15.6H312.543V38.44C312.543 39.5067 312.65 40.3067 312.863 40.84C313.103 41.3733 313.53 41.7333 314.143 41.92C314.757 42.08 315.65 42.1733 316.823 42.2V43C315.997 42.9733 314.89 42.9467 313.503 42.92C312.143 42.8933 310.717 42.88 309.223 42.88C307.757 42.88 306.37 42.8933 305.063 42.92C303.757 42.9467 302.703 42.9733 301.903 43V42.2C303.103 42.1733 304.01 42.08 304.623 41.92C305.237 41.7333 305.65 41.3733 305.863 40.84C306.077 40.3067 306.183 39.5067 306.183 38.44V15.6H305.303C304.077 15.6 303.01 15.88 302.103 16.44C301.197 16.9733 300.423 17.8933 299.783 19.2C299.143 20.48 298.583 22.2533 298.103 24.52H297.183C297.237 24.1467 297.263 23.6933 297.263 23.16C297.29 22.6267 297.303 22.0667 297.303 21.48C297.303 20.8133 297.277 19.8533 297.223 18.6C297.197 17.3467 297.13 16.04 297.023 14.68C298.25 14.7067 299.583 14.7333 301.023 14.76C302.49 14.7867 303.957 14.8 305.423 14.8C306.89 14.8 308.21 14.8 309.383 14.8C310.583 14.8 311.903 14.8 313.343 14.8C314.81 14.8 316.277 14.7867 317.743 14.76C319.21 14.7333 320.53 14.7067 321.703 14.68Z" fill="#C8C8C8"/>
<path d="M0 137.93V13.9773C0 10.8873 3.35454 8.96417 6.02113 10.5255L19.3694 18.3413C20.5951 19.059 21.3483 20.3728 21.3483 21.7931V145.936C21.3483 149.045 17.9569 150.966 15.2908 149.367L1.94249 141.36C0.7374 140.637 0 139.335 0 137.93Z" fill="url(#paint0_linear_608_1480)"/>
<path d="M79.4944 137.977V14.123C79.4944 11.0012 82.9109 9.08266 85.5764 10.7075L98.082 18.3308C99.2732 19.0569 100 20.3512 100 21.7463V145.786C100 148.927 96.5456 150.843 93.8813 149.179L81.3757 141.37C80.2054 140.639 79.4944 139.357 79.4944 137.977Z" fill="url(#paint1_linear_608_1480)"/>
<path d="M41.573 61.7766V35.0219C41.573 32.0364 44.7252 30.1031 47.3863 31.4565L57.0829 36.3879C58.4246 37.0702 59.2697 38.448 59.2697 39.9533V67.8039C59.2697 70.9412 55.8225 72.8573 53.158 71.2011L43.4614 65.1738C42.2871 64.4439 41.573 63.1592 41.573 61.7766Z" fill="url(#paint2_linear_608_1480)"/>
<path d="M41.573 124.329V98.3698C41.573 95.1962 45.0916 93.2865 47.7526 95.0157L57.4492 101.317C58.5846 102.055 59.2697 103.317 59.2697 104.671V130.63C59.2697 133.804 55.7511 135.714 53.0901 133.984L43.3935 127.683C42.2581 126.945 41.573 125.683 41.573 124.329Z" fill="url(#paint3_linear_608_1480)"/>
<defs>
<linearGradient id="paint0_linear_608_1480" x1="50" y1="7" x2="50" y2="157" gradientUnits="userSpaceOnUse">
<stop stop-color="#EC6150"/>
<stop offset="1" stop-color="#EC7F50"/>
</linearGradient>
<linearGradient id="paint1_linear_608_1480" x1="50" y1="7" x2="50" y2="157" gradientUnits="userSpaceOnUse">
<stop stop-color="#EC6150"/>
<stop offset="1" stop-color="#EC7F50"/>
</linearGradient>
<linearGradient id="paint2_linear_608_1480" x1="50" y1="7" x2="50" y2="157" gradientUnits="userSpaceOnUse">
<stop stop-color="#EC6150"/>
<stop offset="1" stop-color="#EC7F50"/>
</linearGradient>
<linearGradient id="paint3_linear_608_1480" x1="50" y1="7" x2="50" y2="157" gradientUnits="userSpaceOnUse">
<stop stop-color="#EC6150"/>
<stop offset="1" stop-color="#EC7F50"/>
</linearGradient>
</defs>
</svg>
